<?xml version="1.0" standalone="no"?>
<!DOCTYPE svg PUBLIC "-//W3C//DTD SVG 20010904//EN"
 "http://www.w3.org/TR/2001/REC-SVG-20010904/DTD/svg10.dtd">
<svg version="1.0" xmlns="http://www.w3.org/2000/svg"
 width="640.000000pt" height="640.000000pt" viewBox="0 0 640.000000 640.000000"
 preserveAspectRatio="xMidYMid meet">
<metadata>
Created by potrace 1.14, written by Peter Selinger 2001-2017
</metadata>
<g transform="translate(0.000000,640.000000) scale(0.100000,-0.100000)"
fill="#000000" stroke="none">
<path d="M0 3200 l0 -3200 1361 0 1361 0 -5 73 c-12 170 -40 368 -64 452 -13
50 -26 99 -28 110 -2 11 -12 58 -24 105 -11 47 -29 164 -40 260 -12 96 -23
185 -25 196 -8 39 -25 325 -31 499 -2 94 -10 196 -16 229 -6 32 -11 155 -12
274 -2 186 0 217 13 218 8 0 18 2 23 4 12 5 26 7 42 9 9 0 28 13 43 29 26 26
44 39 90 63 14 8 20 18 17 29 -3 11 1 20 11 24 9 3 14 12 11 20 -4 9 0 12 13
9 20 -5 36 12 20 22 -17 11 -99 -43 -185 -120 -78 -71 -122 -101 -131 -92 -7
7 15 444 27 522 6 39 21 97 34 130 13 33 29 75 36 94 l12 33 18 -23 c10 -13
20 -39 24 -57 3 -18 20 -68 37 -109 75 -189 126 -281 194 -353 18 -19 40 -51
48 -70 8 -19 36 -55 61 -80 26 -25 69 -71 96 -103 l48 -57 21 40 c11 22 18 45
15 51 -4 5 -3 8 2 7 9 -3 13 5 13 28 0 12 -6 15 -25 10 -18 -5 -23 -3 -19 8 3
8 -3 16 -15 19 -12 3 -21 12 -21 21 0 10 -6 13 -17 9 -16 -6 -15 -3 2 17 11
13 14 20 8 16 -7 -4 -13 -3 -13 2 0 5 -12 7 -27 5 -23 -4 -25 -2 -13 7 11 9
12 13 3 17 -7 2 -13 11 -13 19 0 13 -12 18 -32 15 -5 0 -8 4 -8 10 0 16 -29
41 -42 37 -17 -6 -128 109 -128 132 0 6 -4 10 -9 10 -5 0 -12 13 -16 30 -4 16
-11 30 -16 30 -5 0 -9 6 -9 14 0 8 -4 16 -9 18 -25 10 -101 168 -81 168 6 0
10 -4 10 -9 0 -5 10 -13 21 -16 12 -4 42 -30 68 -59 65 -72 132 -136 143 -136
5 0 17 7 26 16 10 11 17 13 20 5 2 -6 17 -11 33 -11 16 0 38 -9 48 -19 17 -17
21 -18 32 -5 9 11 15 11 25 3 7 -6 18 -8 23 -4 7 3 8 0 5 -9 -4 -10 -1 -16 8
-16 7 0 20 -9 28 -20 10 -14 16 -16 22 -8 9 16 21 4 23 -25 1 -12 7 -23 13
-23 7 -1 17 -2 23 -3 6 0 3 -8 -6 -17 -13 -13 -14 -19 -4 -25 10 -6 9 -13 -4
-33 -9 -14 -14 -32 -11 -40 4 -11 0 -16 -10 -16 -9 0 -16 -4 -16 -10 0 -5 -8
-6 -17 -3 -13 5 -15 2 -10 -11 4 -10 3 -15 -3 -11 -12 8 -13 -5 -1 -23 7 -11
9 -10 15 3 4 10 13 14 24 11 28 -9 95 22 88 40 -3 9 1 14 12 14 15 0 17 7 14
36 -3 24 -1 35 6 30 7 -4 11 8 10 33 0 21 3 45 8 53 5 7 10 23 12 36 1 12 14
38 27 58 14 20 25 42 25 49 0 6 9 20 19 29 11 10 22 30 26 44 4 15 14 34 23
43 24 24 54 59 74 89 12 16 18 20 18 10 0 -13 1 -13 10 0 9 13 11 13 20 0 5
-8 8 -21 5 -27 -2 -7 0 -13 5 -13 5 0 7 -6 4 -14 -3 -7 2 -16 12 -20 21 -8 38
15 59 82 10 29 19 51 22 48 9 -8 -17 -135 -38 -190 -17 -45 -17 -52 -4 -62 8
-6 15 -16 15 -23 0 -21 29 -11 33 12 9 43 -5 -99 -18 -193 -8 -52 -19 -147
-25 -210 -11 -110 -25 -236 -69 -605 -38 -310 -60 -518 -71 -665 -16 -202 -55
-604 -85 -870 -26 -228 -35 -314 -35 -347 l0 -33 1520 0 1520 0 0 3200 0 3200
-3200 0 -3200 0 0 -3200z m1765 2470 c3 -5 1 -10 -4 -10 -6 0 -11 5 -11 10 0
6 2 10 4 10 3 0 8 -4 11 -10z m-195 -64 c0 -3 -4 -8 -10 -11 -5 -3 -10 -1 -10
4 0 6 5 11 10 11 6 0 10 -2 10 -4z m33 -21 c-3 -9 -8 -14 -10 -11 -3 3 -2 9 2
15 9 16 15 13 8 -4z m147 -15 c0 -5 -4 -10 -10 -10 -5 0 -10 5 -10 10 0 6 5
10 10 10 6 0 10 -4 10 -10z m-50 -37 c0 -7 -7 -13 -15 -13 -8 0 -15 -7 -15
-15 0 -8 7 -15 15 -15 8 0 15 -4 15 -10 0 -5 -16 -10 -35 -10 -49 0 -44 -16 5
-18 22 -1 40 3 40 8 0 6 11 15 25 20 14 5 25 14 25 20 0 6 5 8 10 5 6 -3 10 1
10 9 0 9 4 16 9 16 5 0 7 -8 5 -17 -4 -13 6 -23 36 -35 22 -10 40 -24 40 -32
0 -8 10 -16 23 -18 23 -4 67 10 67 22 0 4 16 6 35 6 26 -1 35 -5 35 -18 0 -15
-4 -16 -26 -8 -32 13 -37 13 -28 -1 3 -6 22 -17 40 -25 36 -15 48 -40 14 -29
-11 4 -20 2 -20 -4 0 -6 11 -11 24 -11 26 0 43 -15 27 -24 -5 -4 -12 0 -14 6
-4 10 -8 9 -16 -2 -9 -13 -13 -12 -26 8 -9 12 -21 22 -28 22 -8 0 -8 -3 0 -11
6 -6 9 -18 6 -25 -3 -8 0 -14 6 -14 14 0 15 -27 1 -32 -6 -2 -6 -8 0 -18 8
-13 10 -13 10 2 0 11 6 15 20 11 23 -6 26 -19 8 -26 -7 -3 2 -6 21 -6 34 -1
34 -1 15 -20 -13 -12 -21 -15 -26 -7 -5 6 -5 -11 -1 -39 6 -44 5 -49 -9 -37
-13 10 -18 9 -28 -3 -13 -16 -15 -15 52 -19 9 -1 20 -5 25 -10 4 -5 3 -6 -3
-3 -19 11 -64 -16 -58 -35 2 -9 1 -19 -4 -22 -15 -9 -23 36 -9 53 10 12 9 12
-11 0 -14 -9 -21 -21 -18 -31 3 -12 -2 -18 -12 -18 -15 -1 -14 -3 3 -16 11 -8
25 -12 32 -10 7 3 13 1 13 -4 0 -6 -4 -10 -10 -10 -5 0 -10 -8 -10 -17 0 -15
-2 -16 -10 -3 -10 17 -15 14 -25 -19 -5 -16 -4 -21 4 -17 6 4 11 5 11 2 0 -2
3 -13 7 -23 6 -16 5 -16 -10 -4 -26 20 -30 8 -7 -17 12 -12 16 -22 9 -22 -6 0
-9 -7 -5 -15 4 -11 -2 -15 -22 -15 l-27 0 30 -20 30 -21 -27 7 c-16 3 -28 3
-28 -1 0 -19 23 -45 40 -45 11 0 20 -5 20 -11 0 -6 -9 -8 -21 -4 -19 6 -21 4
-16 -14 3 -13 -1 -24 -10 -30 -9 -4 -17 -25 -19 -47 -2 -26 0 -33 7 -24 7 12
9 10 9 -7 0 -12 5 -25 10 -28 6 -3 10 -10 10 -16 0 -5 -4 -9 -10 -9 -5 0 -10
7 -10 15 0 8 -4 15 -8 15 -12 0 -13 -68 -2 -75 6 -4 8 -11 4 -16 -3 -5 0 -17
8 -26 11 -15 11 -16 -4 -10 -10 3 -20 2 -23 -4 -4 -5 -3 -9 2 -8 4 1 14 1 21
0 21 -2 3 -21 -19 -21 -11 0 -17 -4 -14 -10 3 -5 15 -10 26 -10 10 0 19 -4 19
-9 0 -5 3 -18 7 -28 3 -10 3 -15 -2 -11 -4 4 -14 1 -21 -7 -16 -16 -19 -29 -4
-20 6 3 10 -2 11 -12 0 -11 3 -13 6 -5 2 6 9 10 14 7 5 -4 -1 -19 -13 -35 -12
-16 -25 -27 -31 -23 -5 3 -6 -3 -2 -16 4 -12 2 -21 -4 -21 -6 0 -11 -5 -11
-11 0 -8 4 -8 13 -1 8 7 18 7 27 2 12 -8 11 -10 -5 -10 -18 -1 -18 -2 3 -10
20 -8 22 -15 18 -50 -2 -22 -1 -38 3 -35 5 2 17 -2 27 -11 18 -14 18 -15 -4
-9 -14 4 -28 0 -38 -10 -15 -15 -14 -15 10 -9 16 4 26 2 26 -5 0 -6 -8 -11
-17 -12 -12 -1 -10 -4 7 -9 19 -6 20 -8 6 -9 -15 -1 -16 -4 -6 -16 10 -13 10
-19 -4 -34 -15 -17 -15 -19 5 -37 17 -15 18 -20 7 -29 -18 -13 -30 -45 -18
-45 6 0 10 8 10 17 0 14 2 15 13 4 10 -10 8 -15 -7 -26 -16 -12 -17 -17 -6
-30 10 -12 10 -18 0 -30 -10 -12 -9 -15 4 -15 10 0 14 -4 11 -10 -8 -13 14
-52 25 -45 12 7 -6 -44 -22 -62 -6 -8 -20 -11 -32 -7 -19 5 -19 4 4 -18 14
-13 33 -27 43 -31 9 -3 17 -14 16 -24 0 -16 -1 -15 -9 2 -9 23 -14 14 -24 -42
-4 -22 -2 -33 7 -33 8 0 8 -3 -2 -9 -7 -5 -11 -13 -7 -19 3 -6 2 -13 -4 -17
-6 -3 -10 4 -10 17 0 35 -11 68 -21 63 -4 -3 -6 -12 -3 -19 3 -9 -2 -16 -13
-18 -15 -3 -12 -9 19 -42 23 -24 42 -35 50 -30 10 5 10 4 1 -6 -9 -10 -17 -8
-39 9 -15 11 -34 21 -43 21 -10 0 -7 -6 12 -18 28 -17 38 -38 13 -29 -10 4
-13 1 -9 -9 3 -7 10 -14 16 -14 11 0 -40 -49 -69 -66 -10 -6 -22 -24 -25 -40
-4 -16 -7 -23 -8 -16 0 7 -6 10 -11 7 -8 -5 -7 -11 1 -21 7 -9 8 -14 1 -14 -6
0 -12 6 -15 13 -3 9 -7 9 -20 -2 -10 -7 -17 -10 -17 -6 0 4 -7 2 -15 -5 -8 -7
-12 -16 -9 -21 3 -5 -1 -9 -9 -9 -10 0 -13 8 -9 26 2 14 8 21 11 15 4 -7 12
-4 20 8 8 11 21 16 32 14 11 -3 19 0 19 6 0 15 -33 14 -48 -1 -8 -8 -12 -9
-12 -1 0 6 -9 9 -20 6 -11 -3 -20 -11 -20 -19 0 -8 -6 -11 -15 -8 -10 4 -15 0
-15 -11 0 -11 5 -15 15 -11 8 3 15 1 15 -4 0 -15 -30 -12 -47 6 -11 11 -19 12
-26 5 -6 -6 -20 -12 -32 -12 -11 -1 -4 -5 15 -9 l35 -7 -33 -2 c-22 -1 -31 -5
-26 -13 4 -7 3 -8 -4 -4 -7 4 -12 19 -12 34 0 25 -1 25 -14 6 -8 -10 -10 -20
-5 -22 12 -5 12 -32 -1 -32 -6 0 -15 10 -20 23 -8 17 -9 14 -5 -17 3 -22 2
-37 -1 -33 -4 4 -15 -5 -25 -20 -15 -23 -19 -25 -25 -10 -3 9 -10 14 -15 11
-5 -3 -9 0 -9 6 0 7 8 9 19 5 25 -8 51 22 30 36 -23 15 -34 10 -13 -6 18 -14
17 -14 -16 -16 -19 -1 -43 -1 -52 0 -10 1 -18 -2 -18 -7 0 -6 -14 -9 -31 -8
-19 0 -34 -5 -37 -13 -3 -8 0 -11 7 -7 6 4 11 3 11 -2 0 -6 -7 -12 -15 -16
-10 -4 -15 1 -16 17 0 20 -1 21 -8 3 -5 -14 -10 -16 -15 -7 -10 15 -36 -17
-29 -35 2 -7 0 -15 -6 -19 -7 -3 -8 0 -5 9 3 9 2 16 -4 16 -6 0 -12 -6 -15
-12 -3 -10 -7 -10 -20 1 -10 7 -17 9 -17 3 0 -5 7 -12 15 -16 17 -6 21 -36 5
-36 -5 0 -10 7 -10 16 0 10 -5 14 -16 10 -10 -4 -13 -2 -8 7 6 9 5 9 -8 0 -8
-7 -19 -9 -23 -5 -5 4 -5 1 -1 -5 4 -7 3 -13 -2 -13 -5 0 -12 9 -15 21 -4 14
-10 18 -18 13 -10 -6 -10 -9 -1 -12 26 -8 11 -23 -18 -17 -25 5 -29 4 -24 -9
3 -9 2 -16 -4 -16 -5 0 -13 17 -17 38 -4 20 -10 31 -12 24 -8 -20 -23 -3 -19
21 1 12 1 16 -1 9 -3 -7 -9 -10 -14 -7 -5 4 -9 2 -9 -4 0 -5 5 -13 10 -16 15
-9 1 -27 -16 -21 -8 3 -14 -1 -14 -9 0 -8 -4 -15 -10 -15 -5 0 -10 5 -10 10 0
16 -40 51 -50 45 -6 -4 -10 3 -10 14 0 12 6 21 13 21 6 0 4 5 -6 11 -10 6 -24
8 -32 6 -7 -3 -21 3 -31 14 -17 19 -44 26 -44 11 0 -5 11 -15 25 -22 14 -7 25
-18 25 -23 0 -5 7 -4 15 3 20 17 24 12 18 -26 -4 -25 -9 -31 -23 -27 -10 3
-21 11 -23 17 -7 17 -67 8 -67 -10 0 -9 6 -11 18 -7 15 6 15 5 4 -10 -13 -15
-15 -15 -30 -1 -13 13 -13 20 -3 36 7 11 10 22 7 26 -12 11 -67 8 -77 -5 -13
-15 -29 -17 -29 -3 0 6 6 10 13 10 23 0 39 42 28 70 -7 18 -10 20 -10 8 -1
-25 -31 -23 -31 1 0 11 4 23 10 26 13 8 13 25 0 25 -5 0 -10 -7 -10 -15 0 -8
-9 -15 -20 -15 -12 0 -25 -10 -31 -22 -10 -23 -10 -23 -5 -1 2 12 -1 24 -8 27
-6 2 -4 5 5 5 19 1 52 35 42 44 -13 14 -32 7 -26 -9 5 -13 2 -15 -15 -9 -13 4
-22 2 -22 -4 0 -6 -7 -11 -15 -11 -8 0 -15 5 -15 10 0 6 -10 10 -22 11 -23 0
-23 0 1 10 18 7 27 6 33 -3 6 -9 8 -7 6 7 -2 13 -11 20 -25 19 -12 0 -20 3
-17 8 3 4 12 8 20 8 18 0 18 24 0 39 -10 9 -17 7 -27 -6 -12 -15 -12 -16 6 -9
16 6 18 5 8 -5 -10 -10 -16 -10 -25 -1 -9 9 -9 15 0 24 7 7 12 17 12 22 0 6
-4 5 -9 -3 -7 -11 -13 -11 -32 3 -23 16 -23 16 19 16 23 0 42 -5 42 -11 0 -5
5 -7 10 -4 22 14 -12 35 -51 32 -27 -2 -42 2 -54 16 -9 10 -15 21 -12 23 2 3
10 -2 17 -11 7 -8 19 -15 26 -15 20 0 17 28 -3 33 -12 3 -8 5 9 6 21 1 25 -3
21 -19 -4 -15 0 -20 16 -20 13 0 19 4 16 10 -4 6 -11 7 -17 4 -6 -4 -8 1 -3
15 5 18 2 21 -24 21 -17 0 -31 4 -31 8 0 5 15 7 33 5 24 -3 29 -2 17 6 -8 6
-37 8 -65 6 -42 -5 -46 -4 -25 5 19 8 21 13 11 19 -7 5 -10 14 -7 20 8 13 4
14 -18 5 -9 -3 -14 -10 -11 -14 6 -10 -34 -25 -42 -16 -4 3 1 6 9 6 11 0 14 6
11 19 -4 16 -1 19 16 14 12 -3 21 -1 21 6 0 12 -11 14 -47 11 -13 -1 -23 3
-23 9 0 6 5 11 10 11 6 0 10 5 10 10 0 6 -11 10 -24 10 -13 0 -39 7 -57 16
-33 15 -13 14 24 -1 15 -6 18 -4 15 11 -2 11 -7 22 -13 26 -5 4 -6 10 -2 14 4
4 16 -1 27 -11 21 -19 24 -17 14 9 -3 9 -12 16 -19 16 -8 0 -17 5 -20 10 -4 7
2 9 18 4 14 -3 34 -1 44 6 16 10 15 11 -7 6 -13 -3 -35 -3 -48 1 -19 4 -23 11
-20 35 2 16 -3 32 -11 37 -7 5 -11 13 -7 19 3 6 -4 18 -16 28 -13 9 -16 14 -7
11 14 -5 15 -2 5 18 -6 13 -18 26 -27 28 -12 3 -19 21 -24 56 -4 29 -4 55 -1
58 3 4 6 -5 6 -20 0 -14 5 -29 10 -32 6 -3 7 -17 4 -30 -5 -20 -3 -23 15 -18
17 4 21 1 21 -16 0 -12 7 -24 15 -28 19 -7 34 5 18 15 -6 4 -10 19 -8 34 2 19
-2 28 -16 31 -10 3 -20 0 -23 -7 -2 -6 -5 -1 -5 11 -1 12 8 27 18 33 13 6 17
16 14 31 -4 12 0 25 8 30 9 6 10 9 2 9 -6 0 -15 -5 -18 -11 -4 -6 -14 -8 -21
-5 -12 5 -14 -1 -8 -29 4 -23 2 -35 -5 -35 -6 0 -11 11 -11 25 0 17 -6 25 -17
25 -13 0 -10 6 12 20 l30 21 -27 -5 c-20 -3 -28 0 -28 10 0 8 9 14 20 14 17 0
18 3 10 26 -7 16 -7 23 0 19 6 -3 10 -12 10 -18 0 -7 8 -21 17 -32 15 -19 15
-19 9 9 -6 23 -4 27 8 23 8 -3 17 1 20 9 4 11 0 13 -18 8 -31 -7 -43 12 -13
20 l22 6 -25 16 c-23 14 -23 14 -2 9 25 -7 28 2 8 28 -13 17 -32 25 -22 8 3
-5 -1 -14 -9 -21 -7 -6 -11 -19 -8 -28 4 -13 3 -14 -5 -3 -5 7 -15 10 -21 6
-7 -4 -3 10 8 31 26 49 26 53 -1 47 -21 -4 -21 -3 -5 7 14 9 22 9 32 0 23 -19
41 -7 21 13 -16 15 -16 18 -2 23 9 3 16 15 16 26 0 12 9 22 21 25 16 4 17 8 7
14 -7 5 -13 16 -13 26 0 10 -11 20 -25 24 -16 4 -19 7 -7 8 9 1 17 8 17 16 0
9 -6 12 -15 9 -8 -4 -15 -1 -15 6 0 8 9 10 24 6 32 -8 76 9 76 29 0 15 -1 15
-16 1 -18 -18 -44 -21 -44 -5 0 5 -4 7 -10 4 -5 -3 -10 -1 -10 4 0 6 9 11 20
11 11 0 20 5 20 11 0 5 5 7 12 3 7 -5 8 -3 3 6 -4 7 -2 16 5 20 9 5 9 9 1 14
-6 4 -11 3 -11 -3 0 -12 -28 -41 -41 -41 -6 0 1 11 15 25 16 16 23 32 20 43
-5 14 -4 15 5 2 6 -8 11 -10 11 -5 0 6 15 16 33 23 l32 12 -25 13 c-16 9 -24
20 -22 32 3 16 2 17 -12 6 -9 -8 -19 -11 -22 -9 -3 3 9 12 25 19 17 8 31 21
31 29 0 9 6 22 13 29 10 12 8 13 -8 7 -15 -6 -17 -4 -8 5 6 6 9 18 6 25 -3 8
1 14 11 14 9 0 13 -6 10 -15 -6 -15 12 -38 34 -42 6 -2 12 2 12 8 0 5 5 7 12
3 7 -4 8 -3 4 5 -5 7 -16 9 -29 5 -21 -6 -21 -6 -4 20 17 25 17 26 -4 26 -12
0 -19 5 -16 13 2 6 14 11 26 10 12 -2 20 1 17 6 -4 5 0 12 6 15 7 3 1 3 -13 0
-19 -4 -28 -1 -33 12 -5 13 -4 15 7 6 16 -13 28 -6 21 11 -2 7 7 13 21 13 22
2 25 -1 19 -20 -4 -11 -3 -18 1 -13 7 6 10 17 14 60 1 5 9 6 20 2 13 -4 20 0
24 16 3 11 10 18 16 14 6 -3 11 -2 11 4 0 6 -12 8 -30 4 -26 -5 -29 -3 -24 12
4 10 1 21 -7 27 -10 7 -9 8 6 3 37 -12 40 -10 40 22 0 18 3 33 8 33 31 1 37
-1 32 -11 -4 -6 -14 -8 -22 -5 -11 5 -13 1 -8 -17 4 -12 12 -26 18 -32 7 -7 8
-4 4 8 -4 11 -1 17 8 17 8 0 15 5 15 10 0 6 9 10 20 10 11 0 20 5 20 10 0 6
-5 10 -11 10 -5 0 -7 5 -4 10 3 6 -2 11 -12 11 -17 1 -17 2 0 6 21 6 23 23 2
23 -13 0 -14 4 -5 20 6 11 16 20 22 20 7 0 7 -4 -1 -14 -8 -10 -9 -16 -1 -21
5 -3 10 -2 10 3 0 6 7 12 15 16 9 3 15 0 15 -9 0 -8 -5 -14 -11 -12 -6 1 -13
-3 -16 -10 -3 -7 3 -9 16 -6 12 3 21 10 21 15 0 5 5 6 10 3 6 -3 10 0 10 8 0
21 33 27 49 9 12 -12 12 -15 0 -23 -7 -4 -10 -11 -6 -16 5 -4 12 -1 16 6 5 7
13 11 18 8 5 -3 10 3 11 14 4 44 6 49 17 49 7 0 20 10 31 22 l19 21 -26 -16
c-14 -10 -28 -14 -32 -11 -4 4 -15 -4 -25 -16 -20 -24 -42 -20 -42 7 0 9 6 13
14 10 19 -8 28 3 15 19 -7 8 -7 14 1 19 5 3 10 -1 10 -9 0 -19 20 -22 21 -3 0
9 2 9 6 0 6 -17 53 14 53 36 1 10 7 5 16 -12 9 -16 18 -26 21 -23 3 3 1 12 -5
19 -9 10 -4 17 20 32 l31 18 -6 -23 c-7 -29 5 -15 22 24 11 26 10 28 -3 17
-12 -10 -15 -9 -13 8 2 24 10 26 29 7 12 -11 19 -9 48 17 20 18 29 32 22 35
-7 2 -12 7 -12 12 0 12 39 20 46 9 3 -5 -1 -9 -8 -9 -8 0 -14 -9 -14 -20 0
-25 5 -25 22 -2 13 16 13 16 14 0 0 -10 4 -18 10 -18 6 0 6 9 0 25 -7 20 -6
25 5 25 8 0 15 5 15 10 0 6 -4 10 -10 10 -5 0 -10 7 -10 15 0 8 5 15 10 15 6
0 10 -6 10 -12 0 -15 49 -40 61 -32 5 3 9 -4 9 -14 0 -11 7 -22 15 -26 10 -4
15 1 15 15 0 11 -4 17 -10 14 -6 -3 -7 1 -4 9 4 11 0 16 -10 16 -10 0 -16 8
-16 23 1 21 1 21 11 3 9 -15 13 -16 20 -5 7 11 9 10 9 -3 0 -10 5 -18 10 -18
6 0 9 -3 9 -7 -3 -20 2 -27 11 -13 7 12 11 10 19 -10 9 -24 10 -24 10 -3 1 13
-7 24 -19 28 -30 9 -24 24 8 21 15 -2 33 1 40 7 22 17 25 0 3 -22 -12 -12 -16
-21 -10 -21 7 0 18 8 25 18 10 14 15 15 25 5 18 -18 30 -16 22 4 -4 10 -2 14
4 10 6 -4 13 0 17 8 3 8 1 17 -4 20 -6 4 -10 1 -10 -5 0 -6 -4 -8 -10 -5 -16
10 -12 21 9 22 10 1 23 -8 29 -20 6 -12 11 -16 11 -10 1 8 11 11 30 7 16 -4
32 -1 35 5 4 6 12 9 17 6 5 -4 9 1 9 9 0 10 9 16 25 16 15 0 25 -6 25 -15 0
-9 -6 -12 -15 -9 -8 4 -15 1 -15 -5 0 -6 6 -11 14 -11 8 0 17 -10 19 -22 2
-13 5 5 6 40 0 34 5 62 9 62 5 0 6 -14 4 -31 l-5 -31 27 17 c24 16 26 16 26 1
0 -10 -4 -15 -9 -12 -5 3 -12 -1 -15 -10 -9 -22 -8 -23 14 -17 11 3 20 14 20
24 0 11 5 19 10 19 6 0 10 -8 10 -17 0 -12 5 -9 15 11 8 15 15 36 15 45 0 14
2 14 10 1 5 -8 10 -21 10 -27z m-40 17 c0 -5 -5 -10 -11 -10 -5 0 -7 5 -4 10
3 6 8 10 11 10 2 0 4 -4 4 -10z m335 0 c3 -5 -1 -10 -9 -10 -9 0 -16 5 -16 10
0 6 4 10 9 10 6 0 13 -4 16 -10z m-50 -10 c-3 -5 -11 -10 -16 -10 -6 0 -7 5
-4 10 3 6 11 10 16 10 6 0 7 -4 4 -10z m-42 -17 c4 -2 7 -10 7 -16 0 -9 -2 -9
-8 0 -11 17 -52 4 -52 -16 -1 -13 -3 -12 -12 3 -8 15 -8 21 0 24 7 2 9 8 6 13
-5 9 39 3 59 -8z m244 -5 c-3 -8 -6 -5 -6 6 -1 11 2 17 5 13 3 -3 4 -12 1 -19z
m-817 -4 c0 -2 -7 -4 -15 -4 -8 0 -15 4 -15 10 0 5 7 7 15 4 8 -4 15 -8 15
-10z m-160 2 c0 -11 -19 -15 -25 -6 -3 5 1 10 9 10 9 0 16 -2 16 -4z m96 -23
c-7 -7 -26 7 -26 19 0 6 6 6 15 -2 9 -7 13 -15 11 -17z m22 2 c-3 -3 -9 2 -12
12 -6 14 -5 15 5 6 7 -7 10 -15 7 -18z m452 15 c0 -5 -7 -10 -16 -10 -8 0 -12
5 -9 10 3 6 10 10 16 10 5 0 9 -4 9 -10z m357 -6 c-3 -3 -12 -4 -19 -1 -8 3
-5 6 6 6 11 1 17 -2 13 -5z m-957 -25 c0 -6 -4 -7 -10 -4 -5 3 -10 11 -10 16
0 6 5 7 10 4 6 -3 10 -11 10 -16z m749 -1 c5 -13 6 -27 3 -32 -6 -10 -20 19
-21 42 -1 20 9 14 18 -10z m58 16 c-3 -3 -12 -4 -19 -1 -8 3 -5 6 6 6 11 1 17
-2 13 -5z m88 -4 c-3 -5 1 -10 9 -10 9 0 16 -4 16 -10 0 -13 -17 -13 -25 1 -4
6 -13 8 -21 5 -8 -3 -14 -1 -14 3 0 5 6 12 13 14 20 9 29 8 22 -3z m114 -45
c0 -5 -4 -3 -9 5 -5 8 -9 22 -9 30 0 16 17 -16 18 -35z m-68 8 c-12 -20 -14
-14 -5 12 4 9 9 14 11 11 3 -2 0 -13 -6 -23z m-143 6 c-2 -6 -8 -10 -13 -10
-5 0 -11 4 -13 10 -2 6 4 11 13 11 9 0 15 -5 13 -11z m256 -15 c3 -8 2 -12 -4
-9 -6 3 -10 10 -10 16 0 14 7 11 14 -7z m-67 -19 c0 -8 -4 -12 -9 -9 -4 3 -8
9 -8 15 0 5 4 9 8 9 5 0 9 -7 9 -15z m-57 -5 c0 -5 -7 -10 -15 -10 -8 0 -15 5
-15 10 0 6 7 10 15 10 8 0 15 -4 15 -10z m165 -10 c3 -5 1 -10 -4 -10 -6 0
-11 5 -11 10 0 6 2 10 4 10 3 0 8 -4 11 -10z m-1245 -20 c0 -5 -5 -10 -11 -10
-5 0 -7 5 -4 10 3 6 8 10 11 10 2 0 4 -4 4 -10z m1120 0 c0 -5 -9 -10 -20 -10
-11 0 -20 5 -20 10 0 6 9 10 20 10 11 0 20 -4 20 -10z m-1206 -26 c3 -8 2 -12
-4 -9 -6 3 -10 10 -10 16 0 14 7 11 14 -7z m1193 0 c-3 -3 -12 -4 -19 -1 -8 3
-5 6 6 6 11 1 17 -2 13 -5z m-1214 -41 c7 -9 5 -13 -7 -13 -11 0 -16 8 -15 28
0 15 3 21 6 12 3 -8 10 -21 16 -27z m1237 17 c0 -5 -5 -10 -11 -10 -5 0 -7 5
-4 10 3 6 8 10 11 10 2 0 4 -4 4 -10z m-65 -20 c3 -5 12 -7 21 -3 11 4 14 -2
12 -26 -1 -17 -6 -31 -11 -31 -5 0 -7 10 -3 23 4 19 1 22 -17 22 -13 -1 -28
-5 -35 -9 -16 -9 -15 1 1 19 14 17 24 18 32 5z m-1225 -46 c0 -2 -7 -4 -15 -4
-8 0 -15 4 -15 10 0 5 7 7 15 4 8 -4 15 -8 15 -10z m-186 -60 c3 -8 2 -12 -4
-9 -6 3 -10 10 -10 16 0 14 7 11 14 -7z m76 2 c0 -2 -7 -9 -15 -16 -13 -11
-14 -10 -9 4 5 14 24 23 24 12z m64 -31 c-7 -16 -24 -21 -24 -6 0 8 7 13 27
20 1 1 0 -6 -3 -14z m1301 5 c-3 -5 -12 -10 -18 -10 -7 0 -6 4 3 10 19 12 23
12 15 0z m15 -25 c-7 -9 -15 -13 -17 -11 -7 7 7 26 19 26 6 0 6 -6 -2 -15z
m930 -8 c0 -5 5 -5 12 -1 7 5 8 3 3 -6 -5 -9 1 -20 18 -34 24 -19 67 -89 118
-193 21 -43 52 -57 62 -30 3 7 6 5 6 -5 1 -10 -6 -18 -14 -18 -18 0 -19 -12
-3 -28 9 -9 7 -12 -10 -12 -12 0 -22 5 -22 10 0 6 -4 10 -10 10 -5 0 -7 -6 -4
-14 3 -8 0 -24 -6 -36 -9 -17 -8 -26 4 -45 9 -14 16 -26 16 -29 0 -2 -26 -4
-57 -3 -74 0 -125 -11 -116 -26 4 -6 0 -8 -10 -4 -21 8 -49 -2 -41 -14 5 -9
-17 -13 -45 -10 -7 2 -10 -2 -7 -7 3 -5 -12 -12 -35 -16 -22 -4 -37 -11 -34
-16 3 -6 -3 -10 -14 -10 -12 0 -21 -6 -21 -14 0 -23 -28 -40 -44 -27 -11 9
-17 8 -29 -3 -11 -11 -17 -12 -27 -3 -7 7 -5 -2 4 -20 9 -18 16 -38 16 -45 0
-8 9 -21 20 -31 17 -14 19 -26 15 -93 -3 -55 -1 -84 10 -105 9 -16 15 -32 15
-36 -1 -5 18 -27 41 -50 23 -23 38 -46 34 -53 -9 -15 -35 6 -35 29 -1 13 -2
13 -11 -2 -12 -21 12 -126 36 -160 12 -17 14 -17 22 -2 11 19 59 17 56 -3 -2
-6 3 -11 9 -9 7 1 14 -8 16 -20 2 -13 0 -23 -5 -24 -4 0 -19 -2 -33 -3 -34 -4
-52 4 -46 20 4 10 -6 8 -34 -6 -22 -11 -40 -24 -40 -29 0 -18 -37 -49 -70 -58
-43 -12 -57 -8 -92 25 -32 30 -35 57 -13 128 15 49 19 189 9 270 -6 46 -45 93
-110 136 -49 31 -58 33 -104 25 -19 -4 -46 -9 -60 -11 -14 -2 -43 -11 -63 -20
-21 -8 -41 -15 -45 -14 -4 1 -17 -3 -29 -10 -23 -13 -40 -1 -27 20 5 8 2 9
-11 5 -14 -6 -17 -3 -13 18 3 14 2 28 -2 30 -4 3 -11 21 -14 40 -4 19 -11 35
-16 35 -6 0 -10 5 -10 11 0 5 4 8 8 5 5 -3 1 31 -8 75 -14 63 -15 83 -5 93 7
7 10 26 7 45 -4 26 -2 32 8 26 10 -6 12 -4 8 7 -8 21 67 100 120 127 23 12 46
30 52 41 6 12 21 20 35 20 14 0 34 5 45 10 11 6 29 15 40 20 11 6 27 10 35 10
8 0 15 5 15 10 0 6 10 10 23 10 13 0 32 7 43 15 10 8 29 15 42 15 12 0 25 7
29 16 4 12 8 13 13 3 6 -9 12 -8 25 4 9 10 20 15 25 12 4 -3 50 4 101 14 142
30 229 36 229 18z m1037 -169 c-3 -7 -5 -2 -5 12 0 14 2 19 5 13 2 -7 2 -19 0
-25z m-77 12 c8 -5 11 -10 5 -10 -5 0 -17 5 -25 10 -8 5 -10 10 -5 10 6 0 17
-5 25 -10z m-3510 -20 c0 -5 -5 -10 -11 -10 -5 0 -7 5 -4 10 3 6 8 10 11 10 2
0 4 -4 4 -10z m3548 -15 c-3 -3 -9 2 -12 12 -6 14 -5 15 5 6 7 -7 10 -15 7
-18z m-33 -5 c-3 -5 3 -10 14 -10 14 0 21 -6 21 -20 0 -11 -7 -20 -16 -20 -8
0 -13 4 -9 9 3 6 -2 14 -11 19 -14 8 -13 32 2 32 3 0 2 -4 -1 -10z m215 -20
c0 -5 -4 -10 -10 -10 -5 0 -10 5 -10 10 0 6 5 10 10 10 6 0 10 -4 10 -10z
m-90 -16 c0 -2 -9 -4 -20 -4 -11 0 -20 4 -20 9 0 5 9 7 20 4 11 -3 20 -7 20
-9z m-207 -49 c-3 -9 -8 -14 -10 -11 -3 3 -2 9 2 15 9 16 15 13 8 -4z m121
-73 c2 -4 -4 -8 -14 -8 -10 0 -16 4 -14 8 3 4 9 8 14 8 5 0 11 -4 14 -8z m56
-33 c0 -11 -4 -18 -10 -14 -5 3 -7 12 -3 20 7 21 13 19 13 -6z m40 -43 c0 -11
-19 -15 -25 -6 -3 5 1 10 9 10 9 0 16 -2 16 -4z m40 -6 c0 -5 -5 -10 -11 -10
-5 0 -7 5 -4 10 3 6 8 10 11 10 2 0 4 -4 4 -10z m-75 -20 c3 -5 1 -10 -4 -10
-6 0 -11 5 -11 10 0 6 2 10 4 10 3 0 8 -4 11 -10z m-3740 -30 c-3 -5 -10 -10
-16 -10 -5 0 -9 5 -9 10 0 6 7 10 16 10 8 0 12 -4 9 -10z m3799 -4 c-10 -8
-21 -12 -24 -10 -5 6 21 24 34 24 6 0 1 -6 -10 -14z m-903 -23 c4 -4 6 -18 3
-30 -4 -14 -11 -19 -25 -16 -12 3 -19 0 -19 -8 0 -12 -2 -12 -9 0 -5 7 -22 14
-38 15 -16 2 -36 6 -43 11 -9 5 -11 4 -6 -3 9 -15 -4 -15 -24 -2 -13 9 -11 13
10 30 20 16 36 19 83 16 32 -2 63 -8 68 -13z m-2971 -33 c0 -5 -4 -10 -10 -10
-5 0 -10 5 -10 10 0 6 5 10 10 10 6 0 10 -4 10 -10z m1647 -42 c-3 -8 -6 -5
-6 6 -1 11 2 17 5 13 3 -3 4 -12 1 -19z m1190 -35 c-4 -3 -2 -12 3 -18 8 -9 6
-14 -6 -19 -9 -3 -14 -13 -10 -21 7 -19 -11 -30 -28 -16 -10 9 -21 8 -41 -1
-22 -10 -28 -9 -35 3 -12 18 -32 18 -48 -1 -11 -13 -12 -12 -3 5 13 29 44 55
77 65 35 10 100 13 91 3z m-2867 -93 c-26 -7 -45 -1 -22 7 6 3 9 9 6 15 -4 5
4 4 17 -3 l24 -13 -25 -6z m3170 -35 c7 4 16 -35 26 -120 2 -16 10 -43 18 -60
16 -35 14 -177 -3 -242 -15 -56 -5 -124 18 -115 14 5 14 4 2 -11 -17 -21 -13
-26 23 -29 16 -2 25 -7 22 -14 -3 -7 1 -15 9 -17 7 -3 13 -21 13 -41 0 -19 3
-39 6 -44 3 -6 -6 -13 -21 -17 -17 -4 -29 -2 -31 4 -5 16 -22 13 -22 -4 0 -8
-5 -15 -10 -15 -6 0 -8 10 -6 23 3 12 7 34 11 50 3 15 1 27 -4 27 -6 0 -18
-12 -26 -27 -14 -24 -16 -25 -12 -5 4 17 1 22 -14 22 -20 0 -26 15 -9 25 6 3
10 10 10 16 0 18 -15 8 -37 -25 -12 -19 -32 -36 -45 -38 -19 -2 -22 -8 -20
-30 2 -16 -1 -28 -7 -28 -6 0 -11 8 -11 19 0 10 -7 24 -15 31 -13 11 -15 8
-16 -16 -1 -16 -3 -39 -4 -52 -1 -12 5 -27 14 -32 12 -7 13 -12 4 -18 -7 -4
-17 -32 -24 -62 -6 -30 -17 -64 -24 -76 -16 -25 -2 -54 26 -54 16 0 18 -5 13
-27 -4 -22 -3 -25 5 -13 6 9 11 10 11 3 0 -6 -13 -21 -30 -33 -17 -12 -30 -31
-30 -42 0 -13 -5 -18 -14 -15 -8 3 -17 -1 -20 -9 -4 -11 -13 -13 -28 -8 -13 3
-20 3 -16 -1 12 -12 -12 -47 -28 -41 -8 3 -14 1 -14 -4 0 -6 -7 -10 -15 -10
-8 0 -15 -4 -15 -10 0 -5 -15 -12 -34 -16 -19 -3 -42 -15 -52 -25 -9 -10 -26
-19 -37 -19 -11 0 -35 -5 -53 -12 -28 -10 -39 -9 -76 10 -24 11 -53 24 -65 27
-14 4 -23 14 -23 27 0 14 -5 18 -15 14 -11 -4 -15 1 -15 18 0 26 -42 76 -64
76 -36 0 -126 129 -126 180 0 11 -5 20 -11 20 -6 0 -9 7 -5 15 7 19 -1 19 -19
1 -8 -7 -11 -17 -7 -22 11 -13 -29 18 -64 51 -31 28 -135 219 -139 254 -1 9
-7 30 -13 46 -7 17 -17 42 -23 57 -6 16 -9 37 -6 48 3 11 2 20 -2 20 -4 0 -7
9 -8 20 -2 17 2 20 20 14 12 -4 25 -12 30 -18 5 -8 9 -7 16 2 4 8 10 13 12 11
25 -16 238 64 240 90 0 9 5 3 9 -12 5 -16 6 -36 3 -44 -4 -11 -2 -14 6 -9 6 4
18 2 26 -4 11 -9 13 -34 10 -112 -3 -75 -1 -107 10 -129 19 -36 69 -48 113
-25 17 9 40 16 50 16 11 0 36 14 57 30 30 24 47 30 87 30 109 0 147 64 88 150
-9 14 -23 40 -31 58 -8 17 -17 32 -21 32 -5 0 -8 7 -8 15 0 8 -7 15 -15 15 -8
0 -16 10 -16 23 l-2 22 -4 -23 c-2 -12 -8 -20 -13 -17 -4 3 -3 21 3 40 5 19
14 32 20 28 18 -11 97 -9 97 3 0 7 -7 15 -16 18 -8 3 -13 10 -10 14 5 9 -35
32 -54 32 -11 0 -60 44 -60 54 0 4 5 4 11 0 7 -4 9 0 5 14 -4 11 -3 23 3 26
15 10 40 -5 34 -20 -6 -17 15 -46 29 -38 5 3 8 -2 6 -12 -3 -17 4 -19 68 -18
106 3 178 21 213 53 17 16 32 27 33 26 2 -2 14 12 28 31 14 18 31 34 38 34 7
0 23 9 35 20 l22 21 8 -26 c5 -14 12 -23 17 -20z m322 40 c10 -4 4 -16 -22
-44 -26 -27 -39 -52 -44 -82 -6 -39 -8 -41 -23 -27 -8 9 -19 35 -23 58 -7 40
-6 42 33 71 40 29 54 33 79 24z m-632 -25 c0 -5 -4 -10 -10 -10 -5 0 -10 5
-10 10 0 6 5 10 10 10 6 0 10 -4 10 -10z m-56 -81 c-2 -4 -21 -9 -41 -11 -21
-3 -47 -8 -58 -13 -11 -5 0 10 25 33 l45 41 17 -22 c9 -12 15 -24 12 -28z
m101 7 c-17 -13 -33 -22 -36 -20 -4 2 -12 -3 -19 -10 -10 -13 -45 -14 -58 -1
-6 5 60 35 80 35 7 0 22 7 32 15 32 24 33 6 1 -19z m669 7 c12 -61 18 -166 10
-160 -5 3 -10 -16 -10 -43 -2 -53 -27 -100 -54 -100 -10 0 -21 -7 -24 -16 -17
-44 4 -45 45 -1 29 30 30 31 23 7 -23 -85 -69 -146 -121 -161 -27 -9 -33 5
-33 81 0 41 4 59 14 63 20 8 42 48 24 45 -8 -2 -12 6 -11 22 l3 25 -19 -23
c-24 -28 -30 -19 -27 38 2 36 6 44 19 42 12 -2 17 4 17 23 0 20 5 25 25 25 32
0 32 18 0 30 -22 8 -24 13 -15 29 5 11 10 29 10 41 0 12 7 29 16 38 15 14 18
14 36 -9 11 -13 17 -18 13 -11 -9 17 12 42 35 42 12 0 20 -10 24 -27z m-3604
-2 c0 -10 -26 -9 -36 2 -4 4 2 7 14 7 12 0 22 -4 22 -9z m2257 -58 c-15 -2
-25 -9 -22 -14 4 -5 2 -9 -4 -9 -5 0 -11 -10 -13 -22 -3 -21 -32 -33 -52 -20
-6 3 -17 7 -24 8 -20 3 -23 9 -16 28 10 25 41 35 104 34 30 -1 43 -3 27 -5z
m-522 -13 c3 -5 -1 -10 -9 -10 -8 0 -18 5 -21 10 -3 6 1 10 9 10 8 0 18 -4 21
-10z m645 -55 c0 -3 -8 -5 -18 -5 -10 0 -19 7 -19 14 0 11 5 13 19 5 10 -5 18
-12 18 -14z m-220 -7 c0 -11 -12 -10 -30 2 -12 7 -10 9 8 7 12 0 22 -5 22 -9z
m173 -27 c4 -1 15 -1 25 -2 11 0 7 -5 -13 -14 -44 -20 -55 -18 -55 10 0 21 3
24 18 16 9 -5 20 -9 25 -10z m-106 3 c-3 -3 -12 -4 -19 -1 -8 3 -5 6 6 6 11 1
17 -2 13 -5z m-2240 -32 c-10 -10 -17 -25 -17 -33 0 -12 -2 -12 -10 1 -6 10
-4 20 8 32 23 23 39 23 19 0z m2383 -13 c-12 -16 -24 -28 -27 -26 -4 5 37 57
44 57 3 0 -5 -14 -17 -31z m-55 -9 c-3 -5 -12 -10 -20 -10 -8 0 -18 -6 -22
-12 -4 -7 -18 -18 -30 -25 -17 -10 -22 -9 -27 3 -4 10 -15 13 -33 10 -36 -7
-63 8 -46 25 10 10 18 10 37 0 16 -9 34 -11 53 -6 15 5 39 10 52 11 13 2 26 5
29 8 9 10 14 7 7 -4z m-2358 -102 c-3 -8 -6 -5 -6 6 -1 11 2 17 5 13 3 -3 4
-12 1 -19z m93 -152 c0 -2 -7 -7 -16 -10 -8 -3 -12 -2 -9 4 6 10 25 14 25 6z
m1733 -26 c-3 -12 -8 -19 -11 -16 -5 6 5 36 12 36 2 0 2 -9 -1 -20z m-1706
-26 c-3 -3 -12 -4 -19 -1 -8 3 -5 6 6 6 11 1 17 -2 13 -5z m-1 -23 c-3 -5 -15
-7 -26 -4 -28 7 -25 13 6 13 14 0 23 -4 20 -9z m1986 -85 c16 -38 16 -39 0
-17 -9 14 -25 43 -34 65 -16 38 -16 39 0 17 9 -14 25 -43 34 -65z m-1979 49
c4 -8 2 -17 -3 -20 -6 -4 -10 -4 -10 -1 0 2 -3 11 -6 20 -3 9 -2 16 4 16 5 0
12 -7 15 -15z m-6 -41 c-3 -3 -12 -4 -19 -1 -8 3 -5 6 6 6 11 1 17 -2 13 -5z
m1723 -14 c0 -5 -4 -10 -10 -10 -5 0 -10 5 -10 10 0 6 5 10 10 10 6 0 10 -4
10 -10z m305 -71 c9 -17 14 -33 11 -36 -4 -4 -36 49 -36 62 0 13 11 2 25 -26z
m-2044 -12 c-10 -9 -11 -8 -5 6 3 10 9 15 12 12 3 -3 0 -11 -7 -18z m3039 13
c0 -5 -2 -10 -4 -10 -3 0 -8 5 -11 10 -3 6 -1 10 4 10 6 0 11 -4 11 -10z
m-2862 -271 c-3 -8 -7 -3 -11 10 -4 17 -3 21 5 13 5 -5 8 -16 6 -23z m-31 -11
c-3 -8 -6 -5 -6 6 -1 11 2 17 5 13 3 -3 4 -12 1 -19z m238 -120 c6 -4 2 -8 -7
-8 -10 0 -18 7 -18 17 0 9 3 12 8 7 4 -5 12 -12 17 -16z m1033 -6 c-7 -7 -14
-9 -17 -3 -3 5 -17 11 -31 14 -14 3 -6 4 17 3 33 -1 39 -4 31 -14z m-1038 -22
c0 -5 -4 -10 -9 -10 -6 0 -13 5 -16 10 -3 6 1 10 9 10 9 0 16 -4 16 -10z m782
-32 c-7 -7 -12 -8 -12 -2 0 14 12 26 19 19 2 -3 -1 -11 -7 -17z m188 18 c0 -2
-7 -7 -16 -10 -8 -3 -12 -2 -9 4 6 10 25 14 25 6z m-970 -16 c-8 -5 -19 -10
-25 -10 -5 0 -3 5 5 10 8 5 20 10 25 10 6 0 3 -5 -5 -10z m743 -25 c-3 -9 -8
-14 -10 -11 -3 3 -2 9 2 15 9 16 15 13 8 -4z m-661 -17 c-7 -7 -12 -8 -12 -2
0 14 12 26 19 19 2 -3 -1 -11 -7 -17z m-95 -20 c-3 -8 -6 -5 -6 6 -1 11 2 17
5 13 3 -3 4 -12 1 -19z m57 -9 c-30 -12 -37 -10 -24 5 6 8 19 12 27 9 14 -6
14 -8 -3 -14z m676 17 c0 -2 -7 -6 -15 -10 -8 -3 -15 -1 -15 4 0 6 7 10 15 10
8 0 15 -2 15 -4z m-449 -26 c-11 -6 -9 -11 8 -21 11 -8 21 -18 21 -23 0 -4 -7
-3 -15 4 -8 6 -18 9 -23 6 -10 -6 -9 24 2 42 4 7 11 11 14 7 4 -3 0 -10 -7
-15z m289 -20 c0 -5 -4 -10 -10 -10 -5 0 -10 5 -10 10 0 6 5 10 10 10 6 0 10
-4 10 -10z m-200 -4 c0 -3 -4 -8 -10 -11 -5 -3 -10 -1 -10 4 0 6 5 11 10 11 6
0 10 -2 10 -4z m44 -11 c-4 -8 -8 -15 -10 -15 -2 0 -4 7 -4 15 0 8 4 15 10 15
5 0 7 -7 4 -15z m69 -2 c-7 -2 -13 -11 -13 -18 0 -8 -7 -11 -20 -8 -11 3 -17
9 -14 14 3 5 9 7 14 4 5 -3 11 -1 15 5 3 5 12 10 18 9 9 0 9 -2 0 -6z m-353
-13 c0 -5 -5 -10 -11 -10 -5 0 -7 5 -4 10 3 6 8 10 11 10 2 0 4 -4 4 -10z
m420 0 c0 -5 -5 -10 -11 -10 -5 0 -7 5 -4 10 3 6 8 10 11 10 2 0 4 -4 4 -10z
m-210 -10 c0 -5 -2 -10 -4 -10 -3 0 -8 5 -11 10 -3 6 -1 10 4 10 6 0 11 -4 11
-10z m-25 -10 c3 -6 -1 -7 -9 -4 -18 7 -21 14 -7 14 6 0 13 -4 16 -10z m2165
-65 c14 -9 -24 -79 -54 -99 -18 -11 -26 -13 -26 -4 0 6 -7 3 -16 -8 -9 -12
-14 -13 -11 -4 2 8 -10 24 -27 35 -31 21 -36 48 -15 70 17 18 125 25 149 10z
m-230 -71 c0 -2 -9 -4 -20 -4 -11 0 -20 4 -20 9 0 5 9 7 20 4 11 -3 20 -7 20
-9z"/>
<path d="M1778 5463 c5 -21 7 -23 10 -9 2 10 0 22 -6 28 -6 6 -7 0 -4 -19z"/>
<path d="M1478 5452 c-3 -12 1 -18 11 -19 10 -1 17 7 18 18 2 24 -23 25 -29 1z"/>
<path d="M1395 5450 c-18 -8 -17 -9 8 -9 15 -1 27 4 27 9 0 12 -8 12 -35 0z"/>
<path d="M1607 5440 c-3 -12 0 -20 8 -20 8 0 11 8 8 20 -3 11 -7 20 -8 20 -1
0 -5 -9 -8 -20z"/>
<path d="M1520 5439 c0 -5 5 -7 10 -4 6 3 10 8 10 11 0 2 -4 4 -10 4 -5 0 -10
-5 -10 -11z"/>
<path d="M1131 5424 c0 -11 3 -14 6 -6 3 7 2 16 -1 19 -3 4 -6 -2 -5 -13z"/>
<path d="M1700 5426 c0 -15 18 -31 26 -23 7 7 -7 37 -17 37 -5 0 -9 -6 -9 -14z"/>
<path d="M1837 5408 c-3 -10 -1 -21 4 -24 6 -4 6 -11 -1 -19 -8 -10 -8 -15 1
-21 8 -4 9 -3 5 4 -4 7 -3 12 3 12 5 0 13 9 16 20 3 11 13 20 21 20 23 0 8 17
-20 22 -18 4 -26 0 -29 -14z"/>
<path d="M1335 5410 c3 -5 10 -10 16 -10 5 0 9 5 9 10 0 6 -7 10 -16 10 -8 0
-12 -4 -9 -10z"/>
<path d="M1476 5405 c-3 -8 -1 -15 4 -15 6 0 10 7 10 15 0 8 -2 15 -4 15 -2 0
-6 -7 -10 -15z"/>
<path d="M1235 5400 c-3 -5 -1 -10 4 -10 6 0 11 5 11 10 0 6 -2 10 -4 10 -3 0
-8 -4 -11 -10z"/>
<path d="M1955 5401 c-3 -5 -1 -12 5 -16 5 -3 10 1 10 9 0 18 -6 21 -15 7z"/>
<path d="M1915 5390 c3 -5 8 -10 11 -10 2 0 4 5 4 10 0 6 -5 10 -11 10 -5 0
-7 -4 -4 -10z"/>
<path d="M1288 5383 c7 -3 16 -2 19 1 4 3 -2 6 -13 5 -11 0 -14 -3 -6 -6z"/>
<path d="M1024 5366 c-8 -9 -7 -15 3 -24 8 -8 13 -9 13 -2 0 6 5 8 10 5 6 -3
10 -1 10 4 0 17 18 13 23 -4 4 -11 4 -10 3 2 -1 10 -8 18 -16 18 -8 0 -19 3
-25 7 -5 3 -15 1 -21 -6z"/>
<path d="M977 5324 c-13 -13 -7 -27 6 -15 10 8 17 7 26 -2 11 -10 13 -9 9 3
-5 16 -30 25 -41 14z"/>
<path d="M1765 5280 c-3 -5 -2 -10 4 -10 5 0 13 5 16 10 3 6 2 10 -4 10 -5 0
-13 -4 -16 -10z"/>
<path d="M1930 5276 c0 -2 9 -6 20 -9 11 -3 20 -1 20 4 0 5 -9 9 -20 9 -11 0
-20 -2 -20 -4z"/>
<path d="M2003 5195 c0 -9 4 -14 9 -13 5 2 10 8 10 13 0 5 -5 11 -10 13 -5 1
-9 -4 -9 -13z"/>
<path d="M1948 5173 c6 -2 18 -2 25 0 6 3 1 5 -13 5 -14 0 -19 -2 -12 -5z"/>
<path d="M700 5119 c0 -4 -10 -9 -22 -12 -21 -3 -21 -4 -5 -12 13 -5 25 -2 38
12 16 16 17 20 5 20 -9 0 -16 -4 -16 -8z"/>
<path d="M746 5104 c-9 -24 -7 -27 9 -10 17 17 19 26 6 26 -5 0 -12 -7 -15
-16z"/>
<path d="M655 5040 c-3 -6 1 -7 9 -4 18 7 21 14 7 14 -6 0 -13 -4 -16 -10z"/>
<path d="M505 4940 c3 -5 8 -10 11 -10 2 0 4 5 4 10 0 6 -5 10 -11 10 -5 0 -7
-4 -4 -10z"/>
<path d="M1906 4916 c10 -8 21 -12 24 -10 5 6 -21 24 -34 24 -6 0 -1 -6 10
-14z"/>
<path d="M515 4910 c3 -5 8 -10 11 -10 2 0 4 5 4 10 0 6 -5 10 -11 10 -5 0 -7
-4 -4 -10z"/>
<path d="M450 4840 c0 -5 5 -10 10 -10 6 0 10 5 10 10 0 6 -4 10 -10 10 -5 0
-10 -4 -10 -10z"/>
<path d="M1900 4800 c0 -5 5 -10 11 -10 5 0 7 5 4 10 -3 6 -8 10 -11 10 -2 0
-4 -4 -4 -10z"/>
<path d="M391 4765 c-1 -12 -6 -26 -13 -33 -14 -14 0 -16 20 -4 9 6 10 15 3
33 -9 21 -10 22 -10 4z"/>
<path d="M397 4654 c-20 -27 -14 -32 10 -9 8 8 13 19 11 24 -2 5 -11 -2 -21
-15z"/>
<path d="M350 4624 c0 -8 5 -12 10 -9 6 3 10 10 10 16 0 5 -4 9 -10 9 -5 0
-10 -7 -10 -16z"/>
<path d="M350 4596 c0 -2 7 -7 16 -10 8 -3 12 -2 9 4 -6 10 -25 14 -25 6z"/>
<path d="M365 4559 c-4 -5 -4 -13 -1 -16 3 -4 6 0 7 8 0 8 4 6 9 -6 7 -16 9
-17 9 -3 1 21 -15 32 -24 17z"/>
<path d="M350 4499 c0 -5 5 -7 10 -4 6 3 10 8 10 11 0 2 -4 4 -10 4 -5 0 -10
-5 -10 -11z"/>
<path d="M355 4480 l-20 -9 20 0 c11 0 27 4 35 9 13 9 13 10 0 9 -8 0 -24 -4
-35 -9z"/>
<path d="M300 4476 c0 -2 7 -6 15 -10 8 -3 15 -1 15 4 0 6 -7 10 -15 10 -8 0
-15 -2 -15 -4z"/>
<path d="M1913 4424 c-15 -16 -16 -24 -4 -24 8 0 24 30 19 35 -2 2 -9 -3 -15
-11z"/>
<path d="M310 4379 c0 -5 5 -7 10 -4 6 3 10 8 10 11 0 2 -4 4 -10 4 -5 0 -10
-5 -10 -11z"/>
<path d="M280 4340 c0 -5 5 -10 10 -10 6 0 10 5 10 10 0 6 -4 10 -10 10 -5 0
-10 -4 -10 -10z"/>
<path d="M338 4333 c7 -3 16 -2 19 1 4 3 -2 6 -13 5 -11 0 -14 -3 -6 -6z"/>
<path d="M290 4285 c0 -8 5 -15 10 -15 6 0 10 -9 10 -21 0 -11 4 -18 9 -15 11
7 2 46 -11 46 -5 0 -6 5 -3 10 3 6 1 10 -4 10 -6 0 -11 -7 -11 -15z"/>
<path d="M340 4270 c0 -5 5 -10 10 -10 6 0 10 5 10 10 0 6 -4 10 -10 10 -5 0
-10 -4 -10 -10z"/>
<path d="M1910 4215 c0 -16 16 -20 24 -6 3 5 -1 11 -9 15 -9 3 -15 0 -15 -9z"/>
<path d="M321 4194 c0 -11 3 -14 6 -6 3 7 2 16 -1 19 -3 4 -6 -2 -5 -13z"/>
<path d="M336 4169 c-15 -15 -17 -22 -8 -31 9 -9 12 -9 12 1 0 8 7 19 17 26 9
7 12 14 7 17 -5 3 -18 -3 -28 -13z"/>
<path d="M1940 4050 c0 -5 5 -10 11 -10 5 0 7 5 4 10 -3 6 -8 10 -11 10 -2 0
-4 -4 -4 -10z"/>
<path d="M330 3983 c0 -11 3 -14 8 -7 4 6 14 14 22 17 10 4 8 6 -7 6 -16 1
-23 -5 -23 -16z"/>
<path d="M1920 3979 c0 -5 5 -7 10 -4 6 3 10 8 10 11 0 2 -4 4 -10 4 -5 0 -10
-5 -10 -11z"/>
<path d="M313 3890 c0 -35 5 -37 23 -12 16 20 18 36 4 27 -5 -3 -10 -1 -10 4
0 6 -4 11 -8 11 -5 0 -9 -13 -9 -30z"/>
<path d="M340 3851 c0 -23 5 -31 17 -31 13 0 14 3 6 11 -6 6 -9 17 -7 24 3 7
1 16 -5 20 -7 4 -11 -5 -11 -24z"/>
<path d="M1940 3811 c0 -5 7 -12 16 -15 14 -5 15 -4 4 9 -14 17 -20 19 -20 6z"/>
<path d="M460 3763 c-13 -15 -12 -16 4 -10 10 4 20 7 22 7 2 0 4 5 4 10 0 15
-13 12 -30 -7z"/>
<path d="M1880 3760 c-8 -5 -10 -10 -5 -10 6 0 17 5 25 10 8 5 11 10 5 10 -5
0 -17 -5 -25 -10z"/>
<path d="M1961 3754 c-18 -21 -6 -30 14 -11 8 9 15 18 15 21 0 11 -15 5 -29
-10z"/>
<path d="M420 3745 c0 -8 4 -15 10 -15 5 0 7 7 4 15 -4 8 -8 15 -10 15 -2 0
-4 -7 -4 -15z"/>
<path d="M401 3734 c0 -11 3 -14 6 -6 3 7 2 16 -1 19 -3 4 -6 -2 -5 -13z"/>
<path d="M460 3700 c0 -11 2 -20 4 -20 2 0 6 9 9 20 3 11 1 20 -4 20 -5 0 -9
-9 -9 -20z"/>
<path d="M430 3685 c0 -8 5 -15 10 -15 6 0 10 7 10 15 0 8 -4 15 -10 15 -5 0
-10 -7 -10 -15z"/>
<path d="M1905 3690 c3 -5 8 -10 11 -10 2 0 4 5 4 10 0 6 -5 10 -11 10 -5 0
-7 -4 -4 -10z"/>
<path d="M1930 3673 c0 -9 3 -13 7 -9 4 4 13 -10 19 -31 11 -35 12 -36 13 -10
1 31 -14 67 -29 67 -6 0 -10 -7 -10 -17z"/>
<path d="M480 3660 c0 -5 -10 -10 -22 -10 -12 0 -19 -3 -15 -6 9 -9 57 5 57
16 0 6 -4 10 -10 10 -5 0 -10 -4 -10 -10z"/>
<path d="M1901 3624 c0 -11 3 -14 6 -6 3 7 2 16 -1 19 -3 4 -6 -2 -5 -13z"/>
<path d="M511 3614 c0 -11 3 -14 6 -6 3 7 2 16 -1 19 -3 4 -6 -2 -5 -13z"/>
<path d="M1860 3560 c0 -5 7 -10 15 -10 8 0 15 5 15 10 0 6 -7 10 -15 10 -8 0
-15 -4 -15 -10z"/>
<path d="M1840 3536 c0 -2 7 -7 16 -10 8 -3 12 -2 9 4 -6 10 -25 14 -25 6z"/>
<path d="M1885 3480 c3 -5 10 -10 16 -10 5 0 9 5 9 10 0 6 -7 10 -16 10 -8 0
-12 -4 -9 -10z"/>
<path d="M595 3460 c-3 -5 -2 -10 4 -10 5 0 13 5 16 10 3 6 2 10 -4 10 -5 0
-13 -4 -16 -10z"/>
<path d="M1872 3463 c-6 -3 -10 -9 -6 -14 3 -5 0 -9 -5 -9 -16 0 -13 -20 4
-26 15 -6 71 31 58 39 -19 10 -39 14 -51 10z"/>
<path d="M1816 3443 c-6 -14 -5 -15 5 -6 7 7 10 15 7 18 -3 3 -9 -2 -12 -12z"/>
<path d="M1785 3420 c3 -5 8 -10 11 -10 2 0 4 5 4 10 0 6 -5 10 -11 10 -5 0
-7 -4 -4 -10z"/>
<path d="M1830 3425 c0 -5 5 -17 10 -25 5 -8 10 -10 10 -5 0 6 -5 17 -10 25
-5 8 -10 11 -10 5z"/>
<path d="M590 3396 c0 -10 9 -16 24 -16 13 0 26 -6 29 -12 2 -7 7 -10 11 -7 9
9 -17 36 -41 44 -17 5 -23 2 -23 -9z"/>
<path d="M1804 3402 c-6 -4 -14 -16 -17 -27 -7 -19 -6 -19 7 -2 14 18 14 18
19 0 3 -12 5 -9 6 10 1 30 1 30 -15 19z"/>
<path d="M1694 3385 c8 -8 21 -15 28 -15 8 1 6 6 -6 15 -26 20 -42 19 -22 0z"/>
<path d="M1750 3390 c0 -5 5 -10 10 -10 6 0 10 5 10 10 0 6 -4 10 -10 10 -5 0
-10 -4 -10 -10z"/>
<path d="M1831 3364 c0 -11 3 -14 6 -6 3 7 2 16 -1 19 -3 4 -6 -2 -5 -13z"/>
<path d="M812 3285 c-11 -13 -8 -14 18 -12 29 4 55 17 32 17 -5 0 -16 2 -24 5
-7 2 -19 -2 -26 -10z"/>
<path d="M1510 3284 c0 -8 5 -12 10 -9 6 4 8 11 5 16 -9 14 -15 11 -15 -7z"/>
<path d="M1350 3275 c0 -8 4 -15 10 -15 5 0 7 7 4 15 -4 8 -8 15 -10 15 -2 0
-4 -7 -4 -15z"/>
<path d="M1071 3264 c0 -11 3 -14 6 -6 3 7 2 16 -1 19 -3 4 -6 -2 -5 -13z"/>
<path d="M921 3244 c0 -11 3 -14 6 -6 3 7 2 16 -1 19 -3 4 -6 -2 -5 -13z"/>
<path d="M891 3234 c0 -11 3 -14 6 -6 3 7 2 16 -1 19 -3 4 -6 -2 -5 -13z"/>
<path d="M1090 3240 c0 -5 5 -10 11 -10 5 0 7 5 4 10 -3 6 -8 10 -11 10 -2 0
-4 -4 -4 -10z"/>
<path d="M971 3224 c0 -11 3 -14 6 -6 3 7 2 16 -1 19 -3 4 -6 -2 -5 -13z"/>
<path d="M1022 3215 c0 -16 2 -22 5 -12 2 9 2 23 0 30 -3 6 -5 -1 -5 -18z"/>
<path d="M766 3215 c4 -8 10 -12 15 -9 14 8 10 24 -6 24 -9 0 -12 -6 -9 -15z"/>
<path d="M796 3186 c3 -8 13 -12 27 -8 20 5 20 6 1 13 -29 11 -34 10 -28 -5z"/>
<path d="M983 3175 c-3 -9 -3 -18 -1 -21 3 -3 8 4 11 16 6 23 -1 27 -10 5z"/>
<path d="M1185 3160 c-3 -5 1 -10 10 -10 9 0 13 5 10 10 -3 6 -8 10 -10 10 -2
0 -7 -4 -10 -10z"/>
<path d="M1238 3163 c6 -2 18 -2 25 0 6 3 1 5 -13 5 -14 0 -19 -2 -12 -5z"/>
<path d="M3500 3740 c0 -11 7 -20 15 -20 13 0 14 4 5 20 -6 11 -13 20 -15 20
-3 0 -5 -9 -5 -20z"/>
<path d="M3105 3671 c-16 -4 -64 -6 -105 -3 -58 3 -89 0 -135 -16 -33 -11 -78
-25 -100 -31 -23 -6 -64 -31 -93 -55 -29 -25 -61 -48 -72 -51 -30 -10 -26 -45
5 -45 19 0 25 -5 25 -21 0 -11 4 -18 9 -15 5 4 11 1 13 -5 2 -7 12 -7 32 0 15
6 32 9 37 6 5 -4 6 2 2 12 -6 17 -5 17 13 2 10 -9 28 -17 39 -18 63 -5 143 -3
163 3 30 10 68 47 64 63 -1 6 7 15 19 18 15 5 18 10 10 18 -19 19 -13 23 33
23 42 1 104 33 89 48 -3 3 2 6 13 6 16 0 17 2 4 10 -13 8 -13 10 1 10 22 0 34
31 17 42 -15 9 -40 9 -83 -1z m-125 -85 c0 -3 -4 -8 -10 -11 -5 -3 -10 -1 -10
4 0 6 5 11 10 11 6 0 10 -2 10 -4z m-55 -38 c-6 -17 -4 -20 9 -15 22 9 20 -6
-3 -20 -32 -20 -92 -27 -102 -12 -5 8 -3 16 4 21 7 4 12 13 12 20 0 12 33 25
68 27 14 1 17 -4 12 -21z"/>
<path d="M3210 3425 c0 -8 -7 -15 -15 -15 -8 0 -15 -4 -15 -10 0 -5 8 -6 18
-3 27 10 44 43 22 43 -5 0 -10 -7 -10 -15z"/>
<path d="M3170 3310 c0 -5 5 -10 10 -10 6 0 10 5 10 10 0 6 -4 10 -10 10 -5 0
-10 -4 -10 -10z"/>
<path d="M3771 4304 c0 -11 3 -14 6 -6 3 7 2 16 -1 19 -3 4 -6 -2 -5 -13z"/>
<path d="M2400 4250 c0 -5 7 -7 15 -4 8 4 15 8 15 10 0 2 -7 4 -15 4 -8 0 -15
-4 -15 -10z"/>
<path d="M3510 3030 c-9 -6 -10 -10 -3 -10 6 0 15 5 18 10 8 12 4 12 -15 0z"/>
<path d="M3245 2570 c-4 -6 -12 -7 -18 -4 -7 4 -9 4 -5 -1 4 -4 3 -14 -3 -22
-10 -11 -15 -11 -28 -1 -14 12 -15 11 -2 -5 13 -17 16 -16 43 9 15 15 28 29
28 31 0 7 -9 2 -15 -7z"/>
<path d="M3143 2545 c0 -8 3 -13 5 -10 9 9 32 -17 25 -28 -4 -6 -1 -7 6 -2 9
5 7 13 -10 31 -27 28 -26 28 -26 9z"/>
<path d="M3070 2540 c0 -5 5 -10 10 -10 6 0 10 5 10 10 0 6 -4 10 -10 10 -5 0
-10 -4 -10 -10z"/>
<path d="M3295 2540 c3 -5 12 -7 20 -3 21 7 19 13 -6 13 -11 0 -18 -4 -14 -10z"/>
<path d="M3149 2473 c-13 -16 -12 -17 4 -4 16 13 21 21 13 21 -2 0 -10 -8 -17
-17z"/>
<path d="M3223 2478 c-24 -32 -24 -41 0 -19 15 14 27 26 27 28 0 8 -19 2 -27
-9z"/>
<path d="M3164 2448 l-19 -23 23 19 c12 11 22 21 22 23 0 8 -8 2 -26 -19z"/>
<path d="M3046 1833 c-6 -14 -5 -15 5 -6 7 7 10 15 7 18 -3 3 -9 -2 -12 -12z"/>
<path d="M3040 1791 c0 -6 4 -13 10 -16 6 -3 7 1 4 9 -7 18 -14 21 -14 7z"/>
</g>
</svg>
